<?xml version="1.0" encoding="UTF-8" standalone="no"?>
<svg
   aria-hidden="true"
   focusable="false"
   data-prefix="fas"
   data-icon="mobile-alt"
   class="svg-inline--fa fa-mobile-alt fa-w-10"
   role="img"
   viewBox="0 0 512 512"
   version="1.1"
   id="svg4"
   width="512"
   height="512"
   xmlns="http://www.w3.org/2000/svg"
   xmlns:svg="http://www.w3.org/2000/svg">
  <defs
     id="defs8" />
  <path
     style="display:inline;fill:#444444;fill-opacity:1"
     d="m 368,372 c 0,6.6 -5.4,12 -12,12 H 156 c -6.6,0 -12,-5.4 -12,-12 V 60 c 0,-6.6 5.4,-12 12,-12 h 200 c 6.6,0 12,5.4 12,12 z"
     id="path1608" />
  <path
     id="path3881"
     style="fill:#f46804;fill-opacity:1"
     d="M 368,0 H 144 C 117.5,0 96,21.5 96,48 v 416 c 0,26.5 21.5,48 48,48 h 224 c 26.5,0 48,-21.5 48,-48 V 48 C 416,21.5 394.5,0 368,0 Z m 0,372 c 0,6.6 -5.4,12 -12,12 H 156 c -6.6,0 -12,-5.4 -12,-12 V 60 c 0,-6.6 5.4,-12 12,-12 h 200 c 6.6,0 12,5.4 12,12 z M 256,480 c -17.7,0 -32,-14.3 -32,-32 0,-17.7 14.3,-32 32,-32 17.7,0 32,14.3 32,32 0,17.7 -14.3,32 -32,32 z" />
  <path
     style="fill:#444444;fill-opacity:1"
     d="m 256,480 c -17.7,0 -32,-14.3 -32,-32 0,-17.7 14.3,-32 32,-32 17.7,0 32,14.3 32,32 0,17.7 -14.3,32 -32,32 z"
     id="path3903" />
</svg>
