<?xml version="1.0" encoding="UTF-8" standalone="no"?>
<svg
   aria-hidden="true"
   focusable="false"
   data-prefix="fas"
   data-icon="mobile-alt"
   class="svg-inline--fa fa-mobile-alt fa-w-10"
   role="img"
   viewBox="0 0 512 512"
   version="1.1"
   id="svg4"
   sodipodi:docname="android_apps_egui_is.svg"
   inkscape:version="1.1 (c68e22c387, 2021-05-23)"
   width="512"
   height="512"
   xmlns:inkscape="http://www.inkscape.org/namespaces/inkscape"
   xmlns:sodipodi="http://sodipodi.sourceforge.net/DTD/sodipodi-0.dtd"
   xmlns="http://www.w3.org/2000/svg"
   xmlns:svg="http://www.w3.org/2000/svg">
  <defs
     id="defs8" />
  <sodipodi:namedview
     id="namedview6"
     pagecolor="#ffffff"
     bordercolor="#666666"
     borderopacity="1.0"
     inkscape:pageshadow="2"
     inkscape:pageopacity="0.0"
     inkscape:pagecheckerboard="0"
     showgrid="false"
     inkscape:zoom="1.8301491"
     inkscape:cx="202.71572"
     inkscape:cy="170.75112"
     inkscape:window-width="1817"
     inkscape:window-height="1051"
     inkscape:window-x="-9"
     inkscape:window-y="-9"
     inkscape:window-maximized="1"
     inkscape:current-layer="svg4"
     width="512px" />
  <path
     style="display:inline;fill:#444444;fill-opacity:1"
     d="m 368,372 c 0,6.6 -5.4,12 -12,12 H 156 c -6.6,0 -12,-5.4 -12,-12 V 60 c 0,-6.6 5.4,-12 12,-12 h 200 c 6.6,0 12,5.4 12,12 z"
     id="path1608" />
  <path
     id="path3881"
     style="fill:#f46804;fill-opacity:1"
     d="M 368,0 H 144 C 117.5,0 96,21.5 96,48 v 416 c 0,26.5 21.5,48 48,48 h 224 c 26.5,0 48,-21.5 48,-48 V 48 C 416,21.5 394.5,0 368,0 Z m 0,372 c 0,6.6 -5.4,12 -12,12 H 156 c -6.6,0 -12,-5.4 -12,-12 V 60 c 0,-6.6 5.4,-12 12,-12 h 200 c 6.6,0 12,5.4 12,12 z M 256,480 c -17.7,0 -32,-14.3 -32,-32 0,-17.7 14.3,-32 32,-32 17.7,0 32,14.3 32,32 0,17.7 -14.3,32 -32,32 z" />
  <path
     style="fill:#444444;fill-opacity:1"
     d="m 256,480 c -17.7,0 -32,-14.3 -32,-32 0,-17.7 14.3,-32 32,-32 17.7,0 32,14.3 32,32 0,17.7 -14.3,32 -32,32 z"
     id="path3903" />
</svg>
